<svg width="16" height="16" viewBox="0 0 16 16" fill="none" xmlns="http://www.w3.org/2000/svg">
    <path d="M8 13.2A5.2 5.2 0 1 0 8 2.8a5.2 5.2 0 0 0 0 10.4z" fill="#828282"/>
    <path d="M12.8 8A4.8 4.8 0 0 1 8 12.8v.8A5.6 5.6 0 0 0 13.6 8h-.8zM8 12.8A4.8 4.8 0 0 1 3.2 8h-.8A5.6 5.6 0 0 0 8 13.6v-.8zM3.2 8A4.8 4.8 0 0 1 8 3.2v-.8A5.6 5.6 0 0 0 2.4 8h.8zM8 3.2A4.8 4.8 0 0 1 12.8 8h.8A5.6 5.6 0 0 0 8 2.4v.8z" fill="#828282"/>
    <path d="M7.998 10.406v-.48h-.48v.48h.48zm.002 0h.48v-.48H8v.48zm0 .002v.48h.48v-.48H8zm-.002 0h-.48v.48h.48v-.48zm0 .478H8v-.96h-.002v.96zm-.478-.48v.002h.96v-.002h-.96zM8 9.928h-.002v.96H8v-.96zm.478.48v-.002h-.96v.002h.96z" fill="#fff"/>
    <path d="M8 8.632V5.743" stroke="#fff" stroke-width=".96" stroke-linecap="square" stroke-linejoin="round"/>
</svg>
