<svg width="25" height="24" viewBox="0 0 25 24" fill="none" xmlns="http://www.w3.org/2000/svg">
    <path d="M12.5 19.8a7.8 7.8 0 1 0 0-15.6 7.8 7.8 0 0 0 0 15.6z" fill="#F74949"/>
    <path d="M19.8 12a7.3 7.3 0 0 1-7.3 7.3v1a8.3 8.3 0 0 0 8.3-8.3h-1zm-7.3 7.3A7.3 7.3 0 0 1 5.2 12h-1a8.3 8.3 0 0 0 8.3 8.3v-1zM5.2 12a7.3 7.3 0 0 1 7.3-7.3v-1A8.3 8.3 0 0 0 4.2 12h1zm7.3-7.3a7.3 7.3 0 0 1 7.3 7.3h1a8.3 8.3 0 0 0-8.3-8.3v1z" fill="#F74949"/>
    <path d="m15.253 9.953.354-.353-.707-.707-.354.353.707.707zm-5.507 4.093-.353.354.707.707.353-.354-.707-.707zm.707-4.8-.353-.353-.707.707.353.353.707-.707zm4.093 5.507.354.354.707-.707-.354-.354-.707.707zm0-5.507-4.8 4.8.707.707 4.8-4.8-.707-.707zm-4.8.707 4.8 4.8.707-.707-4.8-4.8-.707.707z" fill="#fff"/>
</svg>
